<svg id="icons" enable-background="new 0 0 64 64" height="512" viewBox="0 0 64 64" width="512" xmlns="http://www.w3.org/2000/svg"><g><g><g><path d="m37.5 46h-6l-3 2-4-1-4 1-3-2h-6c-4.42 0-8 3.58-8 8v7h21 21v-7c0-4.42-3.58-8-8-8z" fill="#5d9cec"/></g><g><path d="m47.499 46c1.11 0 2 .89 2 2 0 1.1-.89 2-2 2-1.1 0-2-.9-2-2 0-1.11.9-2 2-2z" fill="#aab2bd"/></g><g><path d="m47.499 46c-1.1 0-2 .89-2 2 0 1.1.9 2 2 2 1.11 0 2-.9 2-2 0-1.11-.89-2-2-2zm-8.66-3h17.32c.76 1.31 1.229 2.81 1.32 4.42-4.54 1.29-7.881 5.43-7.98 10.37v.01c-.64.13-1.31.2-2 .2s-1.36-.07-2-.2c-.08-4.95-3.43-9.09-7.98-10.38.09-1.61.56-3.11 1.32-4.42z" fill="#545c66"/></g><g><path d="m34.499 48c0-.68.05-1.35.15-2 .96-6.23 6.35-11 12.85-11 7.18 0 13 5.82 13 13s-5.82 13-13 13-13-5.82-13-13zm3 0c0 4.83 3.44 8.87 8 9.8.64.13 1.31.2 2 .2s1.36-.07 2-.2c4.56-.93 8-4.97 8-9.8 0-.2-.01-.39-.02-.58-.091-1.61-.561-3.11-1.32-4.42-1.73-2.99-4.96-5-8.66-5s-6.93 2.01-8.66 5c-.76 1.31-1.229 2.81-1.32 4.42-.01.19-.02.38-.02.58z" fill="#656d78"/></g><g><path d="m39.5 15v6l-4-4s-5 3-11 3-11-3-11-3l-4 4v-5c0-7.19 5.81-13 13-13h10v5c3.87 0 7 3.13 7 7z" fill="#965353"/></g><g><path d="m39.5 21v-6c0-3.87-3.13-7-7-7v-5h-4v5c0 2.209 1.791 4 4 4 1.654 0 3 1.346 3 3v2z" fill="#844747"/></g><g><path d="m39.5 21v6c0 5.76-3.24 10.76-8 13.27-2.09 1.101-4.47 1.73-7 1.73s-4.91-.63-7-1.73c-4.76-2.51-8-7.51-8-13.27v-6l4-4s5 3 11 3 11-3 11-3z" fill="#eac6bb"/></g><g><path d="m35.5 17-.004.002v9.998c0 5.76-3.24 10.76-8 13.27-1.528.805-3.214 1.354-4.998 1.594.655.087 1.322.136 2.002.136 2.53 0 4.91-.63 7-1.73 4.76-2.51 8-7.51 8-13.27v-6z" fill="#d3b1a9"/></g><g><path d="m31.5 40.27v5.73l-3 2-4-1-4 1-3-2v-5.73c2.09 1.101 4.47 1.73 7 1.73s4.91-.63 7-1.73z" fill="#87bcf4"/></g></g><g><g><path d="m24.528 53c-.553 0-1.005-.447-1.005-1s.442-1 .994-1h.011c.552 0 1 .447 1 1s-.448 1-1 1z" fill="#87bcf4"/></g><g><path d="m24.528 58c-.553 0-1.005-.447-1.005-1s.442-1 .994-1h.011c.552 0 1 .447 1 1s-.448 1-1 1z" fill="#87bcf4"/></g></g></g></svg>